<?xml version="1.0" standalone="no"?>
<!DOCTYPE svg PUBLIC "-//W3C//DTD SVG 20010904//EN"
 "http://www.w3.org/TR/2001/REC-SVG-20010904/DTD/svg10.dtd">
<svg version="1.0" xmlns="http://www.w3.org/2000/svg"
 width="1280.000000pt" height="1084.000000pt" viewBox="0 0 1280.000000 1084.000000"
 preserveAspectRatio="xMidYMid meet">
<g transform="translate(0.000000,1084.000000) scale(0.100000,-0.100000)"
fill="#000000" stroke="none">
<path d="M7010 10728 c0 -76 -4 -109 -15 -125 -10 -14 -12 -24 -5 -28 13 -8
13 -174 0 -285 -5 -47 -10 -321 -10 -610 -1 -289 -5 -542 -9 -562 -5 -22 -4
-52 2 -76 8 -32 7 -55 -6 -109 -9 -40 -14 -89 -11 -118 8 -74 16 -86 26 -40 7
33 22 702 33 1470 2 94 5 261 9 372 4 129 2 204 -4 208 -6 4 -10 -32 -10 -97z"/>
<path d="M6538 8681 c-55 -35 -62 -45 -54 -77 6 -21 11 -23 34 -18 37 9 63 34
60 57 -4 24 23 43 46 34 9 -4 22 -20 29 -36 10 -24 16 -28 30 -19 45 25 60
-22 33 -104 -8 -24 -17 -59 -21 -78 -4 -19 -14 -48 -21 -65 -7 -16 -18 -55
-24 -85 -6 -31 -19 -70 -30 -88 l-20 -32 -34 17 c-46 21 -66 6 -66 -49 0 -30
7 -46 29 -69 16 -16 34 -29 39 -29 5 0 29 26 53 57 32 43 48 78 64 139 12 46
27 89 34 98 7 8 16 36 19 63 5 33 12 48 22 48 11 0 16 -17 21 -70 3 -38 12
-97 21 -130 9 -33 19 -79 23 -103 4 -24 17 -55 29 -69 20 -23 25 -24 43 -12
27 16 45 56 38 79 -3 10 1 37 10 61 9 24 32 91 51 149 19 58 38 114 43 125 5
11 14 39 20 62 11 41 54 87 74 80 5 -1 17 -23 26 -47 13 -37 22 -46 44 -48 31
-4 40 12 51 91 6 39 4 53 -10 68 -43 48 -164 3 -226 -86 -31 -43 -58 -130 -72
-228 -4 -27 -15 -56 -25 -66 -9 -9 -17 -33 -18 -54 -1 -38 -19 -71 -33 -62
-11 7 -33 172 -26 192 4 9 0 23 -8 32 -10 11 -17 48 -20 110 -3 52 -8 96 -11
99 -2 3 0 11 6 19 9 10 6 18 -12 33 -28 23 -39 24 -73 9 -21 -10 -31 -8 -61
10 -48 28 -72 27 -127 -8z"/>
<path d="M6835 7853 c-40 -104 -105 -289 -116 -331 -10 -42 -11 -73 -2 -155 7
-56 9 -105 5 -109 -22 -23 -62 55 -62 121 0 27 -4 61 -9 74 -26 67 -135 118
-210 97 -24 -6 -51 -24 -70 -45 -27 -31 -31 -43 -31 -91 0 -86 27 -123 91
-124 45 0 83 33 98 86 16 56 15 57 -34 50 -53 -8 -67 9 -41 49 21 32 66 33
102 2 24 -21 28 -33 34 -103 7 -93 18 -116 71 -150 62 -39 64 -73 6 -102 -36
-18 -36 -50 1 -58 57 -12 62 -16 62 -38 0 -33 -25 -63 -43 -51 -8 6 -27 19
-42 29 l-28 20 -18 -23 c-27 -34 -26 -129 2 -165 11 -14 29 -26 39 -26 44 0
124 102 144 183 3 15 12 27 20 27 12 0 36 -60 36 -91 0 -8 11 -36 25 -62 19
-35 23 -52 16 -65 -5 -10 -16 -56 -25 -103 -20 -110 -83 -408 -102 -484 -18
-68 -26 -80 -67 -101 -35 -19 -44 -12 -29 21 18 38 -2 30 -32 -14 -34 -48 -62
-61 -136 -61 -38 0 -85 -9 -132 -26 -116 -41 -586 -280 -663 -337 -210 -155
-413 -410 -559 -704 -87 -174 -145 -324 -165 -428 -7 -33 -16 -69 -21 -80 -5
-11 -10 -50 -12 -87 -5 -93 -26 -120 -99 -130 -30 -4 -124 -17 -209 -28 -167
-23 -412 -73 -472 -97 -40 -16 -82 -71 -73 -95 8 -21 66 -46 124 -54 40 -5 56
-3 78 11 64 43 484 -16 592 -83 41 -25 51 -43 51 -88 0 -41 63 -304 94 -392 9
-24 46 -94 83 -155 228 -379 422 -575 788 -799 65 -40 151 -101 190 -136 118
-106 120 -107 357 -126 279 -23 299 -30 343 -115 33 -65 51 -162 70 -361 15
-161 38 -311 51 -332 13 -21 25 23 30 119 3 54 22 184 41 288 19 105 34 218
34 253 -1 58 1 66 29 94 26 26 36 29 68 24 20 -3 55 -9 78 -12 51 -8 198 31
344 91 58 24 176 86 262 138 87 52 178 100 202 106 26 6 50 19 56 31 6 10 32
34 58 52 26 17 82 64 125 102 101 92 144 162 351 581 74 149 153 324 176 390
65 183 63 182 380 210 147 13 203 23 270 46 101 34 198 55 298 65 39 3 72 10
72 14 0 19 -38 35 -94 40 l-61 5 0 39 c0 70 -17 76 -343 106 -138 13 -329 61
-397 99 -76 43 -72 33 -226 521 -50 156 -105 266 -225 446 -245 368 -632 665
-1049 807 -124 42 -124 42 -158 24 -37 -20 -65 -14 -77 17 -6 15 -9 17 -9 5
-1 -25 -31 -32 -58 -13 -34 22 -56 78 -51 133 3 27 -14 155 -39 305 -24 143
-43 263 -43 267 0 4 -11 21 -25 37 -27 32 -25 62 4 62 9 0 41 -16 71 -35 71
-46 127 -48 165 -7 28 30 38 58 33 93 -2 18 -19 32 -63 55 -49 25 -61 36 -65
60 -3 17 -14 33 -28 39 -47 21 -24 88 75 215 81 103 158 144 186 99 6 -9 7
-25 3 -35 -7 -18 -8 -18 -20 -1 -26 35 -66 13 -66 -35 0 -39 43 -78 86 -78 48
0 74 37 74 106 0 76 -23 126 -69 152 -86 49 -128 25 -211 -120 -66 -114 -92
-133 -98 -73 -2 17 -14 74 -28 127 -13 54 -36 150 -49 214 -14 64 -32 131 -40
150 -15 37 -39 45 -50 17z m40 -164 c8 -24 -10 -48 -25 -33 -10 10 -2 54 10
54 5 0 12 -9 15 -21z m-36 -463 c26 -42 27 -66 2 -66 -36 0 -56 48 -55 132 2
102 17 123 26 36 4 -41 15 -81 27 -102z m115 37 c-9 -35 -13 -43 -25 -43 -12
0 -12 27 1 51 16 29 31 23 24 -8z m-150 -171 c-7 -23 -28 -30 -39 -11 -9 13
26 52 36 42 5 -5 6 -18 3 -31z m101 18 c8 -12 -21 -60 -35 -60 -5 0 -15 10
-21 22 -10 18 -8 24 7 35 21 16 40 17 49 3z m149 -66 c18 -18 18 -17 10 -38
-3 -9 -14 -16 -23 -16 -22 0 -65 45 -56 59 9 16 51 13 69 -5z m-360 -144 c14
-14 -23 -52 -47 -48 -26 4 -42 30 -33 53 5 14 13 16 38 11 18 -3 37 -11 42
-16z m234 -631 c2 -48 -9 -76 -27 -65 -12 8 -15 74 -5 101 11 29 29 9 32 -36z
m-68 -53 c0 -14 -4 -28 -10 -31 -6 -4 -10 7 -10 24 0 17 5 31 10 31 6 0 10
-11 10 -24z m73 -46 c7 -27 -16 -45 -33 -25 -15 18 -6 45 14 45 7 0 16 -9 19
-20z m-5 -83 c2 -15 -1 -27 -5 -27 -15 0 -33 23 -33 43 0 30 34 16 38 -16z
m-210 -69 c7 -9 2 -49 -14 -128 -13 -63 -24 -134 -24 -158 0 -24 -7 -56 -15
-73 -14 -26 -19 -29 -53 -23 -62 10 -242 -64 -383 -157 -64 -42 -126 -90 -137
-107 -12 -16 -34 -33 -49 -36 -14 -4 -38 -16 -52 -27 -115 -89 -126 -93 -158
-60 -32 33 -160 121 -177 121 -11 0 -16 -9 -16 -29 0 -54 29 -115 76 -158 57
-53 54 -66 -32 -149 -35 -34 -64 -70 -64 -81 0 -10 -26 -66 -59 -124 -60 -109
-126 -281 -136 -359 -6 -41 -5 -44 9 -26 8 10 20 44 27 75 22 111 80 240 133
299 19 20 50 64 69 98 20 33 43 67 52 74 8 7 15 23 15 37 0 32 21 38 62 18 46
-24 68 -45 68 -66 0 -10 9 -21 20 -24 11 -3 20 -13 20 -22 0 -8 14 -32 30 -53
17 -21 30 -47 30 -59 0 -12 6 -21 15 -21 12 0 115 -96 115 -108 0 -2 -14 -22
-31 -43 -17 -21 -28 -39 -24 -39 4 0 16 11 27 25 28 35 60 32 97 -10 17 -20
31 -40 31 -45 0 -5 14 -16 30 -25 18 -9 30 -23 30 -35 0 -23 -31 -33 -180 -55
-58 -8 -119 -20 -136 -26 -18 -5 -47 -9 -65 -8 -19 2 -44 -3 -56 -9 -12 -7
-42 -12 -66 -12 -25 0 -58 -7 -73 -15 -48 -25 -91 -29 -119 -11 -16 11 -26 12
-31 5 -16 -26 -80 -40 -202 -45 -70 -2 -139 -9 -154 -15 -16 -6 -38 -9 -50 -6
-13 4 -29 0 -40 -10 -20 -18 -63 -11 -72 12 -3 9 -1 37 4 63 5 26 14 85 20
131 5 46 19 111 31 145 44 126 122 302 148 336 15 19 49 80 75 135 61 129 114
198 174 229 31 16 55 38 72 66 38 65 90 120 119 126 14 4 37 17 51 29 50 44
207 144 300 190 52 26 109 58 126 71 17 13 39 24 49 24 10 0 26 6 34 13 9 8
41 24 71 36 30 13 62 29 71 37 8 8 27 14 41 14 14 0 74 11 134 24 60 14 123
27 139 29 17 2 33 5 36 6 4 0 11 -5 17 -11z m226 -55 c8 -64 5 -143 -6 -149
-4 -3 -3 -15 4 -27 11 -20 30 -243 28 -330 0 -21 6 -120 13 -220 8 -100 15
-209 15 -242 0 -33 3 -106 7 -162 l8 -102 -89 4 c-49 2 -92 3 -96 4 -20 3 -40
65 -34 105 4 22 6 55 4 71 -9 129 9 402 29 442 12 25 13 36 4 47 -9 11 -9 39
-1 118 6 56 13 135 16 173 9 121 37 300 48 307 29 20 44 8 50 -39z m230 32
c24 -1 44 -8 50 -17 7 -12 15 -14 32 -6 19 9 33 5 80 -22 53 -29 63 -32 116
-26 55 5 63 3 207 -63 209 -95 334 -187 465 -341 42 -50 83 -90 91 -90 7 0 26
-15 42 -34 15 -18 38 -38 50 -45 28 -14 132 -171 179 -268 19 -40 39 -75 45
-78 16 -10 45 -76 84 -185 20 -58 43 -115 51 -128 16 -24 54 -163 54 -199 0
-14 -6 -23 -15 -23 -23 0 -18 -13 15 -42 35 -30 38 -58 10 -83 -22 -20 -55
-18 -230 16 -131 25 -140 34 -140 133 0 52 -7 86 -24 126 -65 152 -75 179 -87
223 -8 31 -27 65 -55 96 -24 27 -48 60 -54 75 -6 16 -17 26 -30 26 -15 0 -26
11 -37 37 l-15 38 -24 -30 c-13 -17 -24 -32 -24 -35 1 -3 39 -54 87 -115 83
-106 133 -191 133 -228 0 -10 20 -60 45 -111 49 -103 59 -171 29 -200 -19 -19
-15 -19 -111 -1 -43 8 -148 24 -233 35 -85 11 -195 27 -245 35 -49 8 -104 15
-122 15 -43 0 -47 10 -20 59 15 29 29 41 44 41 20 0 23 7 29 62 7 58 11 67 56
112 27 27 55 63 63 80 7 17 43 62 78 100 36 38 67 76 70 85 4 16 103 167 182
279 29 41 45 74 45 93 l0 30 -121 -62 c-67 -35 -128 -74 -137 -87 -13 -20 -21
-23 -50 -17 -30 6 -33 4 -27 -14 4 -14 0 -23 -17 -32 -24 -12 -58 -39 -154
-123 -31 -26 -94 -73 -140 -102 -46 -30 -103 -74 -126 -98 -24 -24 -53 -46
-65 -50 -11 -4 -28 -15 -38 -26 -10 -11 -21 -20 -25 -20 -17 0 -20 34 -5 56
14 22 12 46 -8 72 -9 12 -16 51 -21 119 -1 18 -5 35 -9 39 -15 15 -6 34 16 35
l22 0 -21 9 c-31 12 -37 26 -22 49 10 17 9 23 -6 40 -13 15 -15 24 -7 39 7 14
6 25 -5 41 -23 32 -42 207 -25 233 9 15 10 23 2 31 -16 16 -13 37 4 37 26 0
149 -42 165 -56 8 -7 27 -15 42 -19 14 -4 36 -18 49 -31 12 -13 32 -24 43 -24
33 0 127 -48 133 -67 5 -17 114 -93 133 -93 34 0 -25 66 -131 147 -56 43 -269
128 -409 163 -72 18 -83 35 -60 91 10 23 9 31 -3 44 -22 21 -30 69 -23 129 4
28 2 67 -4 85 -11 38 2 57 30 44 8 -3 33 -7 54 -8z m-342 -40 c9 -19 8 -34 -2
-64 -7 -22 -10 -51 -8 -65 3 -15 1 -29 -3 -32 -5 -3 -6 -22 -3 -43 3 -22 1
-70 -5 -107 -6 -38 -13 -127 -15 -199 -2 -71 -9 -141 -14 -156 -7 -17 -7 -31
0 -43 12 -21 1 -165 -14 -183 -6 -8 -5 -19 2 -33 8 -15 9 -42 4 -83 -4 -34 -6
-73 -5 -87 1 -14 -4 -41 -12 -60 -8 -19 -13 -49 -10 -67 4 -23 -1 -37 -17 -53
-25 -25 -46 -22 -42 8 4 31 -22 20 -75 -31 -22 -21 -46 -36 -52 -33 -14 9 -14
97 1 133 6 15 15 51 19 78 13 80 33 169 42 183 5 7 4 18 -2 26 -8 9 -6 28 5
67 9 30 22 90 29 134 14 85 48 216 62 237 4 7 8 38 8 68 0 52 12 125 37 230
10 44 22 102 33 168 7 38 21 41 37 7z m221 -401 c4 -32 11 -68 16 -79 10 -22
32 -168 30 -200 0 -11 4 -38 10 -60 6 -22 10 -69 10 -105 -1 -36 6 -85 14
-110 8 -25 15 -75 15 -112 0 -38 4 -74 10 -80 13 -17 12 -71 -2 -80 -20 -13
-56 -9 -63 8 -3 8 -16 19 -28 24 -21 8 -23 16 -29 162 -4 84 -8 171 -9 193 -1
22 1 48 5 57 5 9 4 19 -2 23 -5 3 -9 18 -8 33 1 15 -5 85 -12 155 -9 96 -10
134 -1 153 6 14 11 39 11 55 0 54 24 26 33 -37z m-425 -7 c7 -8 7 -18 1 -27
-5 -8 -6 -33 -3 -55 5 -40 -28 -217 -61 -320 -9 -27 -20 -110 -25 -184 -7
-103 -13 -138 -26 -152 -24 -26 -31 -25 -85 24 -115 100 -139 119 -176 137
-22 10 -58 37 -81 59 -23 23 -48 41 -55 41 -7 0 -42 22 -77 49 -36 26 -75 51
-87 55 -60 19 -22 96 47 96 24 0 43 7 55 20 30 33 172 120 207 127 18 3 40 11
48 18 8 7 35 19 60 26 25 7 56 21 69 31 13 10 31 18 40 18 9 1 41 12 71 25 65
29 65 29 78 12z m1302 -369 c0 -23 -47 -98 -61 -98 -5 0 -19 -19 -31 -41 -13
-23 -29 -52 -35 -64 -7 -12 -30 -40 -50 -61 -21 -22 -43 -50 -49 -64 -7 -14
-26 -41 -43 -60 -17 -19 -53 -64 -81 -100 -27 -36 -64 -82 -82 -103 -25 -29
-29 -40 -19 -46 11 -7 10 -11 -4 -19 -19 -10 -58 -3 -92 18 -17 11 -24 10 -44
-3 -32 -23 -39 -21 -39 8 0 15 -6 25 -15 25 -16 0 -31 42 -21 59 4 6 1 19 -6
30 -11 18 -7 24 37 63 57 50 100 78 120 78 8 0 27 14 42 32 77 89 181 177 209
178 6 0 16 11 22 24 6 13 46 48 89 76 43 29 89 61 102 71 32 25 51 24 51 -3z
m-1975 -98 c3 -11 13 -20 21 -20 8 0 19 -11 23 -23 5 -13 26 -32 46 -41 20
-10 39 -24 42 -32 3 -8 12 -14 20 -14 9 0 32 -14 52 -31 20 -17 59 -46 86 -64
28 -19 73 -51 102 -70 63 -44 133 -118 133 -142 0 -29 -37 -82 -72 -103 -53
-32 -118 -23 -118 17 0 7 7 13 15 13 21 0 20 5 -25 65 -22 30 -40 59 -40 65 0
5 -6 10 -13 10 -7 0 -30 23 -52 52 -22 29 -52 64 -67 79 -16 15 -28 31 -28 37
0 5 -7 15 -15 22 -8 7 -15 20 -15 30 0 11 -10 20 -27 24 -32 7 -103 94 -103
126 0 26 27 26 35 0z m535 -330 c0 -6 -6 -10 -14 -10 -16 0 -38 24 -30 33 9 8
44 -11 44 -23z m529 -164 c4 -3 23 0 40 7 28 10 34 10 44 -4 7 -8 20 -18 30
-22 18 -7 24 -27 7 -27 -22 0 10 -38 40 -48 20 -8 30 -18 30 -31 0 -12 6 -21
13 -21 6 0 33 -19 60 -43 39 -35 50 -52 62 -100 8 -32 13 -62 11 -66 -3 -4 0
-54 5 -111 9 -97 8 -105 -10 -123 -11 -11 -29 -21 -40 -22 -24 -2 -53 -24 -45
-36 3 -5 16 -9 30 -9 17 0 24 -5 24 -20 0 -22 -34 -44 -56 -36 -8 3 -26 -1
-38 -10 -16 -10 -33 -13 -51 -8 -25 6 -34 1 -72 -42 -40 -44 -44 -53 -39 -84
12 -69 11 -74 -12 -86 -13 -6 -32 -21 -43 -33 -16 -17 -31 -21 -79 -21 -71 0
-103 12 -152 58 -34 32 -38 34 -53 18 -25 -25 -42 -20 -96 31 l-51 47 31 26
c32 25 43 72 20 85 -19 12 -60 -5 -69 -30 -15 -39 -34 -29 -59 30 -27 65 -23
85 18 85 16 0 33 5 36 10 3 6 -5 10 -19 10 -49 0 -85 65 -66 116 l11 28 20
-32 c16 -28 22 -31 40 -22 20 12 59 67 59 85 -1 6 -11 18 -24 27 -23 17 -25
17 -50 -3 -14 -11 -30 -17 -36 -14 -13 8 -13 131 0 156 6 10 17 19 26 19 10 0
13 7 8 25 -8 33 22 80 87 136 99 85 126 95 152 57 l15 -23 11 28 c6 15 16 29
23 31 71 20 183 26 207 12z m-589 -156 c0 -10 -8 -35 -17 -54 -19 -40 -43 -51
-143 -62 -35 -3 -75 -14 -89 -22 -35 -23 -118 -35 -261 -36 -69 0 -160 -7
-202 -15 -85 -15 -168 -8 -168 14 0 18 62 37 95 29 15 -4 43 -2 63 4 21 6 80
15 132 21 52 6 129 15 170 20 55 6 86 16 114 35 50 34 208 81 284 85 16 1 22
-5 22 -19z m997 -4 c4 -8 15 -14 23 -13 8 1 31 -2 50 -5 19 -4 69 -12 110 -18
41 -6 104 -18 139 -26 35 -9 75 -13 88 -9 22 5 152 -15 208 -33 40 -12 -59
-21 -247 -21 -118 -1 -197 3 -215 10 -15 7 -43 11 -60 10 -18 -2 -38 1 -45 5
-7 5 -27 7 -44 5 -24 -2 -36 4 -48 21 -21 30 -20 64 2 77 23 14 30 13 39 -3z
m475 -177 c37 -5 94 -9 128 -9 35 0 74 -6 90 -15 22 -11 35 -12 52 -4 28 12
427 -14 458 -31 13 -7 27 -7 44 1 30 14 76 4 76 -17 0 -8 -7 -31 -15 -51 -13
-32 -18 -35 -44 -30 -15 3 -32 2 -37 -3 -5 -5 -95 -11 -199 -14 -216 -6 -217
-6 -420 -18 -221 -13 -363 -27 -425 -43 -30 -7 -86 -15 -125 -17 -65 -3 -70
-2 -66 17 6 33 1 138 -9 174 -19 71 19 85 170 60 57 -10 71 -9 89 3 23 16 105
15 233 -3z m-1552 -6 c0 -5 -7 -39 -15 -78 -26 -120 -55 -162 -96 -136 -11 6
-30 9 -42 6 -15 -4 -32 1 -50 15 -23 18 -32 20 -57 12 -32 -12 -118 6 -146 29
-11 9 -18 9 -22 2 -8 -12 -207 6 -229 20 -6 4 -14 3 -18 -3 -3 -6 -19 -9 -33
-8 -15 1 -33 -1 -39 -5 -12 -8 -149 16 -161 27 -4 4 4 16 17 27 17 14 37 19
75 17 28 -1 67 4 87 12 26 9 41 10 55 2 13 -7 25 -7 44 2 25 13 128 25 415 51
187 16 215 17 215 8z m2600 -84 c41 -4 102 -12 135 -18 33 -6 67 -8 75 -6 26
8 115 -20 115 -36 0 -11 -28 -15 -154 -17 -96 -1 -158 1 -165 8 -5 5 -33 10
-61 10 -55 0 -75 12 -75 45 0 29 10 38 35 29 11 -3 54 -10 95 -15z m-3810 -3
c0 -22 -19 -30 -64 -27 -52 3 -63 11 -41 28 26 18 105 18 105 -1z m278 -28
c-5 -14 -108 -22 -108 -9 0 16 15 21 63 21 34 0 47 -4 45 -12z m-89 -92 c6 -4
11 -13 11 -19 0 -9 -19 -11 -67 -7 -51 4 -68 9 -68 20 0 26 84 30 124 6z m155
-16 c11 -11 -19 -39 -41 -40 -30 0 -63 21 -63 41 0 20 4 21 47 15 26 -3 52
-11 57 -16z m3482 9 c11 -18 -8 -27 -68 -34 -50 -6 -58 -5 -58 9 0 9 10 21 23
26 31 12 95 12 103 -1z m-232 -9 c30 -11 35 -46 9 -54 -10 -3 -65 -10 -123
-16 -116 -12 -209 -27 -255 -40 -40 -12 -168 -29 -340 -45 -77 -8 -197 -25
-267 -39 -112 -23 -302 -46 -380 -46 -31 0 -39 28 -14 50 8 6 20 27 27 47 14
43 59 66 99 51 16 -6 37 -6 60 1 58 17 214 33 297 30 98 -2 410 18 483 33 152
29 202 36 287 37 50 1 103 -3 117 -9z m-3131 -11 c40 -11 45 -20 22 -39 -28
-24 -138 11 -121 38 9 15 49 15 99 1z m314 -21 c148 -10 162 -13 172 -32 8
-19 10 -19 10 -3 1 17 8 18 69 14 114 -9 130 -14 143 -56 12 -34 13 -34 19
-12 3 13 13 29 22 35 23 14 42 -11 63 -79 14 -49 14 -50 -8 -69 -22 -18 -22
-18 -41 7 -18 24 -20 25 -42 10 -22 -14 -26 -14 -49 1 -14 10 -34 14 -44 11
-10 -3 -29 3 -44 15 -14 11 -36 20 -48 20 -13 0 -41 6 -64 14 -22 8 -66 19
-97 26 -61 12 -73 25 -35 40 35 14 -7 13 -55 -2 -35 -10 -41 -10 -50 5 -12 22
-36 22 -60 0 -17 -15 -19 -15 -37 1 -10 9 -31 21 -47 25 -15 4 -29 12 -32 19
-5 16 37 33 68 27 14 -3 98 -10 187 -17z m-697 -119 c119 -10 134 -11 235 -29
33 -5 91 -14 128 -19 37 -5 74 -14 82 -21 7 -6 24 -10 37 -9 45 5 127 -13 144
-32 11 -13 31 -19 56 -19 22 0 93 -14 158 -31 112 -28 121 -29 144 -14 16 11
26 12 31 6 10 -18 -53 -138 -85 -161 -17 -12 -30 -30 -30 -42 0 -11 -9 -31
-20 -45 -11 -14 -20 -31 -20 -39 0 -7 -10 -25 -23 -41 -42 -52 -153 -237 -172
-287 -10 -26 -38 -74 -63 -105 -24 -31 -52 -72 -63 -93 -16 -31 -16 -38 -4
-48 12 -10 28 2 92 67 55 55 103 92 165 126 62 34 120 78 205 157 65 61 148
131 185 155 37 25 75 59 83 76 25 48 49 35 57 -31 4 -30 11 -68 17 -83 6 -16
11 -54 11 -86 0 -32 5 -83 10 -112 40 -203 78 -465 70 -473 -5 -5 -32 -3 -68
8 -32 9 -67 16 -78 16 -32 0 -50 16 -36 33 10 12 -15 26 -155 87 -93 39 -199
90 -238 112 -38 23 -74 43 -80 47 -5 3 -3 -6 6 -19 9 -14 49 -51 90 -82 151
-117 362 -212 501 -225 83 -7 78 1 102 -168 10 -66 20 -128 23 -138 3 -10 -7
-29 -26 -47 -31 -32 -51 -38 -51 -17 0 9 -20 13 -72 12 -52 0 -80 5 -98 17
-14 9 -68 28 -120 43 -170 47 -414 181 -628 344 -42 32 -91 65 -108 74 -45 23
-163 159 -175 200 -7 25 -17 38 -38 45 -22 8 -31 19 -36 44 -6 30 -92 215
-186 401 -21 42 -39 90 -39 106 0 16 -7 34 -15 41 -9 7 -14 21 -13 31 2 10 -5
24 -14 31 -10 7 -22 33 -28 58 -5 25 -17 73 -27 108 -18 63 -18 64 2 78 11 9
29 12 40 9 11 -4 72 -11 135 -16z m3393 -34 c1 -5 -10 -11 -25 -13 -16 -2 -28
1 -28 7 0 20 49 26 53 6z m88 -31 c10 -12 10 -22 0 -50 -7 -18 -10 -38 -7 -42
3 -5 -4 -25 -14 -45 -11 -20 -20 -45 -20 -55 0 -23 -41 -124 -85 -212 -18 -37
-41 -90 -50 -118 -16 -48 -61 -102 -86 -102 -21 0 -21 33 1 62 13 18 17 29 9
26 -8 -3 -22 -19 -33 -37 -18 -32 -18 -32 3 -55 28 -29 27 -35 -6 -33 -21 2
-31 -6 -47 -32 -12 -19 -35 -48 -52 -65 -17 -17 -42 -51 -54 -76 -12 -25 -40
-64 -62 -88 -21 -23 -44 -53 -50 -67 -6 -14 -26 -34 -45 -45 -18 -10 -41 -35
-50 -55 -9 -19 -23 -35 -30 -35 -8 0 -31 -16 -51 -36 -46 -45 -87 -67 -112
-59 -13 4 -22 -1 -30 -15 -6 -11 -18 -20 -28 -20 -9 0 -26 -7 -36 -15 -11 -8
-30 -15 -42 -15 -12 0 -27 -7 -34 -15 -7 -8 -20 -15 -30 -15 -10 0 -21 -7 -24
-16 -4 -10 -13 -13 -26 -9 -12 4 -47 -7 -93 -29 -41 -19 -86 -38 -100 -41 -14
-4 -35 -17 -47 -30 -14 -15 -44 -28 -78 -36 -30 -6 -84 -22 -119 -35 -35 -13
-75 -24 -88 -24 -32 0 -32 15 0 158 14 61 25 123 25 139 0 15 4 35 10 43 7 12
12 12 35 0 29 -15 72 -8 197 36 101 34 334 174 419 252 48 42 73 39 129 -19
43 -45 48 -60 25 -79 -8 -7 -15 -16 -15 -21 0 -18 30 -8 63 21 19 17 40 30 46
30 16 0 15 4 -31 78 -40 65 -78 136 -78 146 0 3 20 19 44 36 26 19 58 57 81
95 40 69 59 89 92 99 12 4 26 19 32 34 5 15 48 122 94 237 81 200 86 211 121
229 31 15 42 16 66 6 21 -9 38 -9 62 -1 34 10 127 27 164 30 12 0 27 -6 35
-15z m-2717 -20 c9 -3 16 -10 16 -16 0 -14 -53 -5 -58 10 -4 13 16 16 42 6z
m1221 -14 c9 -14 -13 -50 -30 -50 -18 0 -18 1 -5 34 10 27 24 33 35 16z m1045
-17 c-3 -100 -54 -247 -90 -258 -14 -4 -31 -27 -46 -61 -13 -30 -27 -54 -31
-54 -5 0 -13 -10 -19 -23 -30 -63 -97 -182 -110 -194 -8 -8 -14 -21 -14 -28 0
-7 -7 -21 -16 -29 -21 -22 -51 -5 -73 42 -9 20 -35 69 -59 109 -23 39 -42 76
-42 81 0 5 -14 27 -31 48 -17 21 -46 71 -65 111 -20 40 -39 73 -44 73 -16 0
-41 46 -35 63 12 29 114 65 186 65 37 0 73 3 80 8 8 5 34 9 59 10 25 0 80 9
124 19 61 13 83 15 103 6 19 -9 27 -8 39 4 16 15 84 21 84 8z m-1830 -18 c-13
-16 -40 -20 -40 -7 0 14 12 22 33 22 16 0 17 -3 7 -15z m988 -27 c-3 -7 -11
-13 -18 -13 -7 0 -15 6 -17 13 -3 7 4 12 17 12 13 0 20 -5 18 -12z m-968 -126
c0 -66 -3 -82 -20 -97 -11 -10 -20 -24 -20 -31 0 -7 -35 -40 -77 -74 -43 -34
-102 -88 -131 -120 -29 -32 -69 -69 -90 -81 -20 -13 -63 -47 -95 -76 -50 -46
-87 -66 -87 -48 0 11 34 71 106 191 41 67 74 128 74 136 0 8 11 25 25 38 14
13 41 53 61 89 47 85 81 130 108 141 11 5 49 9 84 9 l62 1 0 -78z m976 47 c3
-6 17 -8 29 -5 19 5 30 -2 55 -31 17 -21 34 -50 37 -65 3 -16 11 -28 17 -28
13 0 29 -24 67 -95 28 -54 66 -114 98 -156 12 -15 30 -47 40 -72 11 -25 24
-48 30 -51 6 -4 28 -37 50 -74 21 -37 48 -76 60 -86 24 -22 29 -59 7 -54 -8 2
-93 80 -189 173 -97 94 -207 196 -246 228 -39 33 -71 63 -71 68 0 5 -6 9 -13
9 -15 0 -71 57 -80 81 -3 9 3 35 14 59 10 23 19 48 19 56 0 18 36 54 54 54 8
0 18 -5 22 -11z m-922 -15 c11 -30 7 -64 -9 -64 -20 0 -29 23 -21 55 7 28 21
33 30 9z m201 -24 c23 -26 2 -35 -32 -13 -29 18 -43 33 -43 45 0 12 57 -12 75
-32z m-75 -20 c0 -4 13 -10 29 -13 16 -3 40 -16 54 -29 24 -22 26 -30 37 -205
7 -100 9 -190 6 -201 -4 -11 -2 -23 4 -27 5 -3 10 -33 10 -65 0 -33 7 -78 16
-100 10 -24 14 -53 10 -71 -4 -19 0 -42 11 -62 22 -44 32 -222 12 -215 -18 6
-35 56 -64 188 -39 175 -55 242 -75 305 -11 33 -31 132 -45 220 -14 88 -31
183 -37 212 -12 58 -6 86 17 77 8 -3 15 -10 15 -14z m341 -21 c31 -16 41 -45
29 -88 -5 -21 -7 -52 -4 -69 4 -17 -1 -82 -10 -144 -32 -233 -39 -297 -37
-364 1 -29 -8 -122 -19 -207 -11 -86 -17 -162 -14 -170 7 -18 -13 -70 -25 -63
-5 3 -12 68 -15 143 -4 76 -12 176 -17 222 -5 46 -10 147 -10 225 -1 93 -8
192 -23 291 -23 151 -26 211 -11 235 9 14 124 7 156 -11z m149 -93 c5 -15 5
-37 0 -58 -6 -18 -8 -40 -5 -49 3 -9 -1 -22 -10 -29 -8 -7 -15 -20 -15 -30 0
-9 -3 -20 -7 -24 -4 -4 -8 -33 -9 -65 -2 -49 -14 -102 -41 -181 -4 -12 -7 -10
-15 7 -14 30 9 212 32 258 10 19 14 38 9 41 -12 7 -12 67 0 96 5 13 12 31 15
41 8 25 35 21 46 -7z m258 -128 c118 -131 320 -312 356 -319 11 -2 24 -12 30
-21 16 -26 -22 -71 -65 -79 -48 -8 -70 -17 -131 -50 -29 -17 -82 -44 -118 -61
-36 -17 -78 -41 -93 -54 -32 -27 -154 -67 -188 -62 -52 7 -51 17 34 313 19 66
46 167 60 225 29 124 42 160 58 160 6 0 32 -23 57 -52z m590 -454 c-10 -10
-28 6 -28 24 0 15 1 15 17 -1 9 -9 14 -19 11 -23z m-975 -366 c2 -7 0 -22 -6
-33 -6 -11 -12 -36 -14 -55 -8 -82 -19 -131 -28 -133 -17 -3 -17 83 -1 134 9
26 16 56 16 67 0 30 24 45 33 20z"/>
<path d="M6835 4536 c-16 -12 -18 -19 -10 -41 6 -15 20 -34 32 -42 19 -13 24
-12 43 7 15 15 20 31 18 53 -3 27 -7 32 -33 35 -16 2 -39 -4 -50 -12z"/>
<path d="M7091 4467 c-18 -23 -23 -71 -9 -89 7 -9 30 -20 51 -23 l37 -7 0 51
c0 46 -3 52 -30 66 -35 18 -35 18 -49 2z"/>
<path d="M6622 4457 c-7 -8 -16 -35 -21 -60 -4 -26 -14 -54 -21 -62 -11 -13
-8 -15 21 -15 57 0 129 94 98 125 -22 22 -64 28 -77 12z"/>
<path d="M6803 4371 c-23 -17 -57 -37 -75 -44 l-34 -14 -17 -114 c-21 -142
-21 -183 0 -235 25 -60 104 -109 193 -119 77 -9 109 -1 173 42 75 51 115 92
128 131 10 32 14 34 45 29 51 -9 84 22 84 79 0 40 -2 44 -24 44 -13 0 -29 -7
-36 -15 -17 -20 -49 -19 -57 3 -3 9 -21 50 -39 89 -29 64 -38 75 -76 92 -24
11 -74 26 -113 35 -38 9 -79 18 -90 22 -13 3 -35 -5 -62 -25z m207 -99 c29
-14 38 -27 54 -74 18 -57 46 -79 46 -37 0 12 5 19 13 17 21 -8 14 -51 -11 -64
-30 -15 -51 -46 -50 -71 2 -26 -61 -113 -82 -113 -10 0 -23 6 -29 14 -10 12
-19 12 -44 4 -26 -10 -32 -9 -41 7 -6 10 -19 26 -28 36 -36 38 -41 58 -28 126
7 35 18 67 25 69 7 3 10 15 8 28 -6 31 21 56 62 56 19 0 37 5 40 10 9 14 24
12 65 -8z"/>
<path d="M6890 4197 c-33 -12 -53 -53 -39 -79 13 -24 33 -19 37 10 2 12 12 27
23 32 19 11 26 35 12 43 -5 2 -19 -1 -33 -6z"/>
<path d="M6866 3744 c-25 -24 -19 -52 14 -69 29 -15 31 -15 41 9 14 30 7 51
-20 65 -15 8 -23 7 -35 -5z"/>
<path d="M5420 3753 c0 -9 11 -45 25 -79 14 -34 22 -69 19 -78 -3 -8 5 -30 19
-48 33 -44 97 -173 97 -196 0 -10 14 -31 30 -47 17 -16 44 -54 61 -83 32 -56
76 -108 85 -99 3 3 -15 32 -41 65 -36 46 -67 111 -140 292 -72 178 -101 239
-124 261 -24 21 -31 24 -31 12z"/>
<path d="M8595 3637 c-8 -13 -18 -39 -21 -58 l-7 -34 22 27 c12 15 18 33 15
42 -3 9 -1 23 6 31 7 8 10 15 6 15 -3 0 -12 -10 -21 -23z"/>
<path d="M8550 3495 c-7 -8 -9 -15 -6 -15 4 0 14 7 22 15 9 8 11 15 6 15 -5 0
-15 -7 -22 -15z"/>
<path d="M8512 3439 c2 -6 8 -10 13 -10 5 0 11 4 13 10 2 6 -4 11 -13 11 -9 0
-15 -5 -13 -11z"/>
<path d="M8470 3324 c0 -14 4 -23 10 -19 6 3 10 15 10 26 0 10 -4 19 -10 19
-5 0 -10 -12 -10 -26z"/>
<path d="M4916 4593 c3 -27 11 -55 16 -63 6 -10 8 -5 4 19 -3 18 -6 46 -6 62
0 16 -5 29 -11 29 -7 0 -8 -16 -3 -47z"/>
<path d="M3630 4356 c-81 -45 -158 -127 -206 -221 -23 -46 -52 -92 -88 -140
-12 -16 -17 -17 -24 -7 -9 14 14 158 39 238 13 44 8 74 -14 74 -8 0 -37 -39
-66 -88 -56 -95 -159 -233 -178 -239 -25 -9 -34 70 -17 148 29 137 42 234 33
243 -5 6 -31 10 -58 10 -40 0 -56 -6 -84 -30 -20 -16 -47 -37 -62 -47 -20 -15
-25 -26 -23 -50 3 -29 7 -32 39 -35 40 -3 75 22 45 34 -9 3 -16 12 -16 19 0
15 43 45 65 45 19 0 19 -17 -1 -110 -30 -143 -3 -290 55 -298 29 -5 60 24 123
115 70 101 76 100 71 -5 -4 -65 -1 -92 9 -106 14 -17 16 -17 47 -2 34 18 77
80 130 183 17 35 42 70 56 79 13 8 29 30 35 48 13 41 41 67 107 100 51 26 53
26 63 6 6 -11 8 -31 4 -45 -8 -33 13 -33 86 1 58 27 86 48 101 76 15 29 -13
22 -57 -12 -47 -38 -80 -37 -76 1 3 30 -21 60 -46 58 -9 -1 -51 -20 -92 -43z"/>
<path d="M10330 4333 c-35 -7 -50 -21 -50 -48 0 -20 -6 -23 -61 -29 -68 -7
-95 3 -109 40 -11 29 -26 31 -35 4 -5 -17 -15 -20 -64 -20 -94 0 -221 -51
-221 -89 0 -32 28 -32 76 2 41 29 53 32 117 32 67 0 72 -2 75 -22 5 -34 -23
-131 -58 -205 -30 -62 -35 -68 -86 -88 -48 -20 -54 -26 -54 -51 0 -39 21 -46
69 -24 37 16 40 16 65 0 35 -23 183 -33 227 -14 25 10 34 10 37 1 7 -21 29
-13 57 19 35 43 21 58 -38 40 -149 -44 -137 -43 -202 -20 -33 12 -64 25 -68
29 -5 4 4 32 19 63 32 66 71 87 157 87 61 0 101 17 105 45 3 24 -32 48 -57 40
-10 -3 -23 -17 -29 -30 -9 -20 -19 -25 -50 -25 -21 0 -43 5 -50 12 -25 25 -6
120 28 138 10 6 52 10 92 10 104 1 185 40 176 87 -3 19 -26 24 -68 16z"/>
<path d="M11 4132 c-20 -14 169 -21 784 -27 292 -3 852 -10 1245 -16 425 -6
741 -7 780 -2 84 11 -216 20 -1140 33 -1378 20 -1655 22 -1669 12z"/>
<path d="M10648 4034 c-16 -15 6 -24 60 -23 31 1 71 5 87 9 25 6 20 8 -26 9
-31 0 -69 4 -85 7 -16 3 -32 2 -36 -2z"/>
<path d="M10946 4029 c-32 -5 -61 -11 -63 -13 -9 -9 286 -16 827 -22 311 -2
678 -7 817 -10 164 -3 254 -1 258 6 3 5 3 10 -2 10 -151 9 -329 11 -628 11
-319 -1 -608 5 -1045 23 -58 2 -132 0 -164 -5z"/>
<path d="M6935 1188 c-96 -69 -135 -126 -135 -201 0 -62 19 -94 81 -133 21
-13 46 -38 55 -56 22 -42 29 -133 14 -186 -18 -70 -143 -192 -196 -192 -35 0
-58 43 -58 106 0 36 5 59 17 72 9 10 20 32 23 49 8 41 -23 73 -69 73 -43 0
-65 -17 -73 -57 -5 -28 -3 -33 25 -47 46 -24 53 -45 40 -120 -15 -79 -2 -106
58 -124 122 -37 264 120 280 309 9 102 -35 201 -103 234 -56 27 -58 62 -8 151
20 35 44 69 54 74 33 18 57 12 64 -15 4 -14 13 -25 21 -25 20 0 20 59 -1 88
-19 28 -50 28 -89 0z"/>
<path d="M6860 151 c0 -94 4 -151 10 -151 6 0 10 55 10 144 0 86 -4 147 -10
151 -6 4 -10 -47 -10 -144z"/>
</g>
</svg>
