<?xml version="1.0" standalone="no"?>
<!DOCTYPE svg PUBLIC "-//W3C//DTD SVG 20010904//EN"
 "http://www.w3.org/TR/2001/REC-SVG-20010904/DTD/svg10.dtd">
<svg version="1.0" xmlns="http://www.w3.org/2000/svg"
 width="1280.000000pt" height="814.000000pt" viewBox="0 0 1280.000000 814.000000"
 preserveAspectRatio="xMidYMid meet">
<g transform="translate(0.000000,814.000000) scale(0.100000,-0.100000)"
fill="#000000" stroke="none">
<path d="M11845 8075 c-144 -37 -292 -84 -369 -115 -208 -84 -335 -109 -711
-140 -346 -28 -441 -71 -651 -295 -66 -70 -132 -134 -149 -143 -16 -8 -68 -19
-115 -23 -108 -10 -165 -29 -165 -55 0 -25 58 -54 108 -54 91 0 124 -54 68
-111 -39 -38 -78 -38 -229 2 -64 16 -145 31 -179 31 -69 2 -104 -17 -178 -92
-21 -22 -45 -40 -51 -40 -7 0 -61 23 -120 52 -85 42 -119 53 -169 56 -85 6
-128 -16 -245 -123 -106 -96 -215 -157 -350 -194 -129 -35 -327 -62 -505 -67
-152 -5 -186 -3 -318 20 -194 33 -448 91 -567 128 -159 49 -216 58 -453 68
-125 5 -244 14 -265 19 -35 10 -72 30 -201 112 l-54 34 -132 0 c-108 0 -135 3
-158 18 -37 24 -59 72 -60 130 -1 40 -5 52 -24 65 -93 60 -628 114 -925 92
-212 -15 -297 -13 -401 11 -157 35 -201 16 -397 -165 l-125 -116 -80 -18 c-54
-13 -86 -16 -98 -10 -29 15 -4 35 110 90 76 36 107 57 122 81 11 18 47 56 80
85 34 29 61 59 61 67 0 16 -47 33 -115 41 -80 10 -247 -14 -344 -48 -278 -96
-371 -116 -615 -129 -207 -10 -267 -19 -431 -60 -97 -25 -130 -29 -175 -24
-141 19 -223 0 -365 -84 -94 -56 -165 -76 -336 -96 -177 -21 -291 -44 -449
-90 -67 -19 -129 -35 -138 -35 -9 0 -33 -12 -53 -26 -21 -14 -84 -43 -141 -64
-57 -21 -173 -67 -259 -104 -86 -36 -161 -66 -166 -66 -6 0 -50 -29 -98 -65
-48 -36 -93 -65 -100 -65 -23 0 -114 -79 -141 -122 -29 -46 -29 -38 5 -273 12
-82 30 -181 41 -220 10 -38 26 -110 35 -158 35 -195 116 -436 221 -657 72
-153 84 -206 84 -375 1 -232 16 -280 170 -560 92 -167 210 -413 210 -437 0 -6
-22 -45 -49 -88 -64 -99 -75 -141 -68 -260 3 -52 15 -252 27 -445 20 -331 29
-427 67 -690 21 -143 24 -954 5 -1245 -17 -250 -47 -550 -68 -665 -32 -184
-34 -203 -25 -227 22 -59 144 -144 191 -134 109 23 301 81 376 114 185 80 457
248 556 343 114 108 261 274 359 405 101 135 148 184 175 184 18 0 18 -19 -2
-65 -8 -21 -13 -44 -10 -51 9 -25 87 -16 227 26 228 69 591 171 659 185 36 7
116 21 179 30 63 9 136 25 162 36 27 10 77 25 113 33 36 9 104 35 153 60 48
24 133 61 188 81 55 20 192 82 303 138 l204 101 56 -14 c114 -26 141 -25 243
15 122 48 263 84 344 87 101 5 113 -27 25 -67 -47 -21 -50 -41 -15 -79 48 -52
76 -57 318 -54 289 3 260 10 972 -255 529 -197 508 -191 690 -193 222 -3 370
-40 500 -124 74 -47 140 -70 226 -77 89 -8 154 10 236 62 72 46 188 89 269
100 90 12 112 23 124 61 22 64 -20 97 -183 145 -40 11 -103 29 -140 40 -70 20
-88 38 -67 64 17 20 132 20 241 -1 197 -36 557 -140 693 -199 54 -23 131 -21
270 9 183 40 227 41 428 12 212 -31 276 -32 359 -6 86 26 159 72 287 178 158
132 250 189 527 329 274 138 410 215 424 241 20 38 -15 78 -102 117 -46 22
-69 26 -120 23 -84 -4 -83 16 1 58 124 62 290 88 667 104 745 32 736 31 847
84 64 30 124 85 152 139 16 31 17 39 6 53 -13 14 -52 15 -404 9 -433 -8 -726
4 -885 35 -198 38 -725 65 -849 43 -42 -7 -118 -14 -169 -15 -81 -1 -96 2
-135 25 -66 39 -125 94 -113 106 17 17 295 140 368 162 96 30 202 23 369 -24
155 -44 228 -53 288 -37 63 17 104 62 129 145 12 38 35 91 53 119 49 81 174
239 226 288 44 42 57 48 148 68 101 23 180 56 204 85 11 14 9 21 -21 51 -40
42 -148 115 -203 138 -65 27 -144 44 -279 61 -157 19 -223 40 -348 110 -140
79 -212 135 -233 181 -42 95 -71 117 -196 151 -96 26 -347 25 -452 -1 -72 -19
-80 -19 -110 -4 -44 21 -150 117 -142 129 3 5 44 9 92 9 91 1 278 32 422 70
68 19 92 30 123 60 34 34 37 42 37 92 0 30 -7 79 -16 108 -21 71 -14 122 26
201 68 136 381 582 496 709 28 30 53 63 57 72 3 9 -3 49 -14 87 -25 93 -25
151 2 185 11 15 55 53 97 85 89 68 132 106 132 119 0 16 -74 43 -151 55 -66 9
-89 8 -161 -7 -140 -30 -298 -85 -404 -141 -56 -30 -130 -61 -165 -69 -36 -8
-116 -37 -179 -65 -99 -44 -316 -118 -680 -233 -130 -41 -172 -64 -287 -157
-55 -44 -125 -94 -156 -110 -92 -48 -222 -66 -222 -31 0 17 214 156 355 230
68 36 123 76 195 141 199 180 368 293 516 344 88 30 131 73 168 169 12 30 8
30 101 5 71 -18 320 -16 415 5 125 28 212 68 287 135 46 40 90 68 144 91 115
47 129 58 191 137 71 94 101 118 169 140 105 33 127 82 139 308 10 205 29 264
125 389 109 142 92 157 -168 148 -135 -4 -152 -3 -152 11 0 32 100 66 331 111
153 30 201 49 318 121 50 32 146 79 212 106 67 27 128 54 135 60 44 37 -19 65
-256 115 -195 40 -194 40 -465 -31z m-6457 -1071 c113 -26 142 -38 142 -58 0
-30 -54 -40 -248 -44 -257 -6 -287 1 -259 59 25 49 119 81 212 72 28 -3 96
-16 153 -29z m-68 -588 c14 -6 26 -20 28 -32 2 -16 15 -23 64 -33 79 -16 161
-53 181 -81 8 -12 38 -32 65 -45 65 -30 180 -142 188 -184 4 -17 13 -36 20
-42 8 -6 14 -18 14 -26 0 -8 9 -26 19 -39 27 -35 44 -149 39 -268 -4 -88 -8
-108 -34 -156 -38 -72 -38 -150 -1 -268 15 -47 27 -106 27 -136 0 -50 -25
-241 -36 -278 -10 -33 -94 -97 -150 -113 -68 -20 -155 -88 -171 -136 -7 -18
-12 -74 -12 -122 -1 -102 -19 -147 -78 -196 -56 -46 -83 -40 -99 24 -13 57
-44 75 -44 26 0 -61 -68 -85 -164 -59 -39 10 -48 10 -64 -5 -31 -29 -95 -22
-136 14 l-35 30 -42 -30 c-23 -17 -52 -31 -65 -31 -43 0 -124 128 -124 197 -1
83 -62 160 -164 208 -28 14 -88 38 -132 55 -92 34 -163 90 -195 151 -31 61
-62 207 -56 264 3 28 21 87 41 132 35 80 45 136 26 148 -5 3 -15 25 -21 48
-18 66 2 134 52 183 22 21 52 63 65 91 18 37 33 55 50 59 31 8 30 18 -1 38
-37 24 -32 57 15 100 33 29 48 36 83 36 46 0 132 36 158 66 23 26 34 64 19 64
-7 0 -34 -16 -60 -35 -27 -20 -73 -44 -103 -54 -78 -27 -107 -45 -148 -88 -43
-45 -59 -73 -59 -105 0 -13 -11 -46 -25 -74 -39 -78 -115 -111 -135 -58 -15
37 -12 72 10 160 30 119 90 235 157 305 63 66 189 156 231 165 15 3 63 18 107
34 136 50 309 99 386 108 88 12 274 4 309 -12z m4040 -532 c39 -8 73 -20 76
-26 10 -16 -76 -96 -123 -114 -61 -24 -159 -16 -184 15 -17 21 -17 26 -3 59
32 79 98 97 234 66z m-487 -315 c29 -47 -104 -193 -158 -173 -20 8 -19 27 5
73 50 99 123 147 153 100z m-3167 -945 c4 -14 4 -98 1 -187 -5 -180 -12 -206
-76 -313 -22 -37 -47 -91 -56 -120 -30 -103 -95 -147 -254 -174 -94 -16 -277
-16 -360 0 -142 26 -251 93 -267 163 -12 58 -62 142 -122 210 -65 71 -65 70
-76 220 -3 42 -14 86 -28 113 -17 34 -20 49 -11 62 18 30 41 25 89 -20 65 -60
110 -130 140 -220 14 -42 38 -94 54 -116 32 -45 101 -82 165 -90 36 -4 45 -1
54 17 26 48 115 16 153 -56 13 -24 26 -43 30 -43 4 0 17 18 28 39 37 73 98
100 148 65 29 -20 59 -13 126 30 63 41 130 112 151 162 9 22 15 67 15 115 0
43 5 90 11 106 24 63 73 85 85 37z m1183 -111 c16 -14 23 -37 31 -113 22 -190
52 -251 150 -300 70 -35 90 -67 90 -140 0 -83 -56 -174 -123 -199 -45 -17 -97
-13 -240 19 -74 17 -144 30 -155 30 -23 0 -148 -50 -287 -115 -55 -26 -138
-63 -185 -82 -47 -19 -98 -45 -115 -58 -43 -32 -88 -53 -177 -86 -43 -15 -95
-41 -115 -57 -21 -16 -68 -42 -105 -57 -37 -15 -78 -40 -92 -56 -14 -16 -44
-38 -66 -49 -22 -11 -46 -33 -55 -49 -16 -32 -53 -47 -178 -76 -74 -16 -262
-107 -322 -155 -21 -16 -53 -34 -72 -39 -19 -6 -49 -21 -67 -35 -18 -14 -60
-34 -92 -45 -32 -11 -151 -58 -263 -105 -112 -47 -236 -95 -275 -107 -140 -42
-272 -123 -305 -186 -10 -21 -28 -46 -40 -57 -18 -17 -20 -28 -18 -127 2 -95
-1 -111 -19 -135 -29 -39 -85 -57 -186 -58 -73 -1 -91 2 -115 20 -31 24 -32
37 -19 199 5 58 4 87 -6 105 -8 15 -67 57 -143 103 -147 89 -165 102 -165 130
0 30 58 131 96 168 32 31 40 34 99 34 59 0 74 -5 187 -63 l123 -63 165 67
c232 93 295 121 380 170 97 56 269 128 394 164 55 16 118 42 140 58 23 15 70
39 106 52 36 12 144 62 240 110 96 48 206 99 244 115 39 15 86 40 105 56 20
15 199 111 398 213 425 216 519 274 570 354 22 33 46 59 64 65 17 7 29 19 29
29 0 10 14 60 30 110 17 50 30 112 30 138 0 56 25 84 91 105 67 21 212 19 238
-2z m-3205 -57 c49 -20 104 -73 111 -107 4 -16 18 -57 31 -90 13 -33 30 -87
37 -122 12 -60 14 -63 65 -93 62 -37 585 -262 965 -415 280 -112 317 -130 317
-154 0 -31 -164 -116 -239 -122 -54 -5 -228 51 -376 122 -49 24 -106 46 -125
50 -19 4 -138 40 -265 80 -312 100 -335 105 -371 90 -16 -7 -56 -36 -89 -65
-77 -68 -124 -90 -201 -90 -74 0 -143 31 -209 95 -49 48 -63 85 -47 118 6 12
18 40 27 62 20 51 50 82 150 158 44 33 84 64 89 68 5 5 -18 60 -54 131 -96
184 -90 237 31 279 65 22 108 24 153 5z m6659 -561 c25 -14 80 -32 123 -40 96
-19 138 -42 142 -77 3 -23 -2 -28 -35 -38 -21 -6 -96 -14 -168 -17 -103 -4
-147 -2 -210 12 -97 21 -115 30 -115 55 0 21 27 38 115 71 31 11 61 29 68 40
15 25 25 24 80 -6z m532 -320 c115 -49 239 -85 293 -85 40 0 72 -15 72 -35 0
-46 -159 -68 -286 -40 -255 55 -354 90 -354 125 0 20 19 30 60 30 16 0 41 11
57 25 15 13 34 25 41 25 7 0 60 -20 117 -45z m-5040 -344 c115 -32 661 -238
748 -282 102 -52 232 -36 339 41 159 113 243 120 337 29 56 -56 67 -116 29
-176 -22 -36 -130 -123 -153 -123 -25 0 -75 -57 -75 -85 0 -15 14 -82 32 -148
l32 -120 -45 -39 c-141 -123 -301 -132 -352 -19 -18 39 -21 67 -22 175 l0 129
-150 64 c-82 36 -194 80 -248 99 -54 19 -110 42 -123 53 -13 10 -40 22 -61 26
-20 3 -102 33 -182 65 -80 32 -220 83 -310 114 -167 57 -191 68 -191 92 0 18
54 57 130 93 79 38 159 41 265 12z m4141 -262 c74 -61 -188 -199 -379 -199
-94 0 -170 48 -111 70 14 6 27 10 29 10 3 0 25 13 51 30 81 51 296 113 362
105 19 -2 40 -9 48 -16z m471 -1195 c11 -33 -118 -134 -171 -134 -57 0 -87 58
-48 93 9 8 43 18 74 22 31 4 65 13 75 21 21 16 65 14 70 -2z m-503 -275 c55
-25 38 -69 -27 -69 -40 0 -77 21 -77 45 0 33 56 46 104 24z m-8258 -695 c10
-40 -23 -99 -96 -167 -69 -66 -122 -97 -162 -97 -36 0 -48 19 -48 75 0 62 32
121 79 149 52 30 152 65 188 65 27 1 34 -4 39 -25z"/>
<path d="M4577 5537 c-123 -28 -182 -120 -162 -252 13 -88 104 -156 232 -175
89 -13 149 -12 196 1 34 9 42 18 65 67 23 48 27 71 27 144 0 80 -2 90 -30 130
-18 26 -48 52 -75 65 -57 29 -173 38 -253 20z"/>
<path d="M5405 5456 c-79 -25 -142 -72 -172 -130 -23 -44 -20 -118 7 -161 27
-44 50 -57 119 -66 30 -4 67 -17 82 -28 56 -42 168 -21 235 44 63 61 80 143
45 220 -47 105 -191 160 -316 121z"/>
<path d="M5016 5018 c-44 -68 -116 -272 -116 -329 0 -22 2 -39 5 -39 3 0 46
20 95 45 49 25 94 45 99 45 6 0 33 -20 61 -45 28 -25 57 -45 65 -45 18 0 43
46 51 97 5 34 1 44 -39 98 -48 65 -179 195 -196 195 -6 0 -17 -10 -25 -22z"/>
</g>
</svg>
